<svg xmlns="http://www.w3.org/2000/svg" xmlns:xlink="http://www.w3.org/1999/xlink" width="330" zoomAndPan="magnify" viewBox="520 190 330 320" height="320" preserveAspectRatio="xMidYMid meet" version="1.0"><defs><clipPath id="6f69b9ec39"><path d="M 631.816406 389.984375 L 731.972656 389.984375 L 731.972656 487.8125 L 631.816406 487.8125 Z M 631.816406 389.984375 " clip-rule="nonzero"/></clipPath><clipPath id="264eb2dc33"><path d="M 0.816406 0.984375 L 100.972656 0.984375 L 100.972656 98.8125 L 0.816406 98.8125 Z M 0.816406 0.984375 " clip-rule="nonzero"/></clipPath><clipPath id="444e9fca3c"><rect x="0" width="101" y="0" height="99"/></clipPath><clipPath id="8b9d933679"><path d="M 631.816406 338.742188 L 731.972656 338.742188 L 731.972656 438.898438 L 631.816406 438.898438 Z M 631.816406 338.742188 " clip-rule="nonzero"/></clipPath><clipPath id="cbe0d56afe"><path d="M 681.894531 338.742188 C 654.238281 338.742188 631.816406 361.160156 631.816406 388.820312 C 631.816406 416.476562 654.238281 438.898438 681.894531 438.898438 C 709.550781 438.898438 731.972656 416.476562 731.972656 388.820312 C 731.972656 361.160156 709.550781 338.742188 681.894531 338.742188 Z M 681.894531 338.742188 " clip-rule="nonzero"/></clipPath><clipPath id="87bd19a2b5"><path d="M 0.816406 0.742188 L 100.972656 0.742188 L 100.972656 100.898438 L 0.816406 100.898438 Z M 0.816406 0.742188 " clip-rule="nonzero"/></clipPath><clipPath id="4a92b1a6e3"><path d="M 50.894531 0.742188 C 23.238281 0.742188 0.816406 23.160156 0.816406 50.820312 C 0.816406 78.476562 23.238281 100.898438 50.894531 100.898438 C 78.550781 100.898438 100.972656 78.476562 100.972656 50.820312 C 100.972656 23.160156 78.550781 0.742188 50.894531 0.742188 Z M 50.894531 0.742188 " clip-rule="nonzero"/></clipPath><clipPath id="e961bee392"><rect x="0" width="101" y="0" height="101"/></clipPath><clipPath id="705a13e976"><path d="M 4 0.800781 L 37 0.800781 L 37 21.441406 L 4 21.441406 Z M 4 0.800781 " clip-rule="nonzero"/></clipPath><clipPath id="6feb9f8d19"><path d="M 4.046875 11.488281 L 7.613281 0.875 L 36.886719 10.703125 L 33.324219 21.316406 Z M 4.046875 11.488281 " clip-rule="nonzero"/></clipPath><clipPath id="935f4ee362"><path d="M 0 0.800781 L 32.960938 0.800781 L 32.960938 21.441406 L 0 21.441406 Z M 0 0.800781 " clip-rule="nonzero"/></clipPath><clipPath id="87e75e9169"><path d="M 0.046875 11.488281 L 3.613281 0.875 L 32.886719 10.703125 L 29.324219 21.316406 Z M 0.046875 11.488281 " clip-rule="nonzero"/></clipPath><clipPath id="6e61d6afee"><rect x="0" width="33" y="0" height="22"/></clipPath><clipPath id="7b97b61d0a"><path d="M 0.949219 0.875 L 12.183594 0.875 L 12.183594 12.105469 L 0.949219 12.105469 Z M 0.949219 0.875 " clip-rule="nonzero"/></clipPath><clipPath id="5cf6140627"><path d="M 6.566406 0.875 C 3.464844 0.875 0.949219 3.390625 0.949219 6.488281 C 0.949219 9.589844 3.464844 12.105469 6.566406 12.105469 C 9.667969 12.105469 12.183594 9.589844 12.183594 6.488281 C 12.183594 3.390625 9.667969 0.875 6.566406 0.875 Z M 6.566406 0.875 " clip-rule="nonzero"/></clipPath><clipPath id="b467790bea"><path d="M 0.949219 0.875 L 12.183594 0.875 L 12.183594 12.105469 L 0.949219 12.105469 Z M 0.949219 0.875 " clip-rule="nonzero"/></clipPath><clipPath id="4481addd0d"><path d="M 6.566406 0.875 C 3.464844 0.875 0.949219 3.390625 0.949219 6.488281 C 0.949219 9.589844 3.464844 12.105469 6.566406 12.105469 C 9.667969 12.105469 12.183594 9.589844 12.183594 6.488281 C 12.183594 3.390625 9.667969 0.875 6.566406 0.875 Z M 6.566406 0.875 " clip-rule="nonzero"/></clipPath><clipPath id="1e155398ac"><rect x="0" width="13" y="0" height="13"/></clipPath><clipPath id="4c6fe0c0e1"><path d="M 28.496094 10.085938 L 39.726562 10.085938 L 39.726562 21.316406 L 28.496094 21.316406 Z M 28.496094 10.085938 " clip-rule="nonzero"/></clipPath><clipPath id="32906866a1"><path d="M 34.113281 10.085938 C 31.011719 10.085938 28.496094 12.597656 28.496094 15.699219 C 28.496094 18.800781 31.011719 21.316406 34.113281 21.316406 C 37.214844 21.316406 39.726562 18.800781 39.726562 15.699219 C 39.726562 12.597656 37.214844 10.085938 34.113281 10.085938 Z M 34.113281 10.085938 " clip-rule="nonzero"/></clipPath><clipPath id="5fd69eb8e6"><path d="M 0.496094 0.0859375 L 11.726562 0.0859375 L 11.726562 11.316406 L 0.496094 11.316406 Z M 0.496094 0.0859375 " clip-rule="nonzero"/></clipPath><clipPath id="11955467c0"><path d="M 6.113281 0.0859375 C 3.011719 0.0859375 0.496094 2.597656 0.496094 5.699219 C 0.496094 8.800781 3.011719 11.316406 6.113281 11.316406 C 9.214844 11.316406 11.726562 8.800781 11.726562 5.699219 C 11.726562 2.597656 9.214844 0.0859375 6.113281 0.0859375 Z M 6.113281 0.0859375 " clip-rule="nonzero"/></clipPath><clipPath id="e2dd4fc172"><rect x="0" width="12" y="0" height="12"/></clipPath><clipPath id="4685540adf"><rect x="0" width="40" y="0" height="22"/></clipPath><clipPath id="e7e9ab1c52"><path d="M 5 3 L 38 3 L 38 35 L 5 35 Z M 5 3 " clip-rule="nonzero"/></clipPath><clipPath id="41ed5ecc74"><path d="M 5.816406 10.941406 L 12.605469 3.683594 L 37.816406 27.261719 L 31.027344 34.519531 Z M 5.816406 10.941406 " clip-rule="nonzero"/></clipPath><clipPath id="a5e5f8e583"><path d="M 0.71875 0.480469 L 32.878906 0.480469 L 32.878906 31.679688 L 0.71875 31.679688 Z M 0.71875 0.480469 " clip-rule="nonzero"/></clipPath><clipPath id="aab94666c8"><path d="M 0.816406 7.941406 L 7.605469 0.683594 L 32.816406 24.261719 L 26.027344 31.519531 Z M 0.816406 7.941406 " clip-rule="nonzero"/></clipPath><clipPath id="b3d7e53ca7"><rect x="0" width="33" y="0" height="32"/></clipPath><clipPath id="e05874453f"><path d="M 4 2 L 16 2 L 16 13 L 4 13 Z M 4 2 " clip-rule="nonzero"/></clipPath><clipPath id="1c2acefc7e"><path d="M 6.539062 0.882812 L 17.023438 5.667969 L 12.886719 14.734375 L 2.402344 9.949219 Z M 6.539062 0.882812 " clip-rule="nonzero"/></clipPath><clipPath id="32e5671b81"><path d="M 11.78125 3.273438 C 8.886719 1.953125 5.613281 2.914062 4.472656 5.417969 C 3.328125 7.921875 4.75 11.019531 7.644531 12.339844 C 10.539062 13.660156 13.8125 12.703125 14.953125 10.199219 C 16.09375 7.695312 14.675781 4.59375 11.78125 3.273438 Z M 11.78125 3.273438 " clip-rule="nonzero"/></clipPath><clipPath id="04bf0b031b"><path d="M 0 0 L 12 0 L 12 11 L 0 11 Z M 0 0 " clip-rule="nonzero"/></clipPath><clipPath id="56ea0a8a09"><path d="M 2.539062 -1.117188 L 13.023438 3.667969 L 8.886719 12.734375 L -1.597656 7.949219 Z M 2.539062 -1.117188 " clip-rule="nonzero"/></clipPath><clipPath id="2721b57ef9"><path d="M 7.78125 1.273438 C 4.886719 -0.046875 1.613281 0.914062 0.472656 3.417969 C -0.671875 5.921875 0.75 9.019531 3.644531 10.339844 C 6.539062 11.660156 9.8125 10.703125 10.953125 8.199219 C 12.09375 5.695312 10.675781 2.59375 7.78125 1.273438 Z M 7.78125 1.273438 " clip-rule="nonzero"/></clipPath><clipPath id="f4775352e2"><rect x="0" width="12" y="0" height="11"/></clipPath><clipPath id="8c15a29757"><path d="M 28 25 L 40 25 L 40 36 L 28 36 Z M 28 25 " clip-rule="nonzero"/></clipPath><clipPath id="98dca9faeb"><path d="M 30.945312 23.640625 L 41.429688 28.421875 L 37.292969 37.488281 L 26.808594 32.707031 Z M 30.945312 23.640625 " clip-rule="nonzero"/></clipPath><clipPath id="0422b7f600"><path d="M 36.1875 26.03125 C 33.292969 24.710938 30.019531 25.667969 28.878906 28.171875 C 27.734375 30.675781 29.15625 33.777344 32.050781 35.097656 C 34.945312 36.417969 38.214844 35.457031 39.359375 32.957031 C 40.5 30.453125 39.082031 27.351562 36.1875 26.03125 Z M 36.1875 26.03125 " clip-rule="nonzero"/></clipPath><clipPath id="54ef80a7ab"><path d="M 0 0 L 12 0 L 12 11 L 0 11 Z M 0 0 " clip-rule="nonzero"/></clipPath><clipPath id="f96bcb5fdc"><path d="M 2.945312 -1.359375 L 13.429688 3.421875 L 9.292969 12.488281 L -1.191406 7.707031 Z M 2.945312 -1.359375 " clip-rule="nonzero"/></clipPath><clipPath id="4fb40b923c"><path d="M 8.1875 1.03125 C 5.292969 -0.289062 2.019531 0.667969 0.878906 3.171875 C -0.265625 5.675781 1.15625 8.777344 4.050781 10.097656 C 6.945312 11.417969 10.214844 10.457031 11.359375 7.957031 C 12.5 5.453125 11.082031 2.351562 8.1875 1.03125 Z M 8.1875 1.03125 " clip-rule="nonzero"/></clipPath><clipPath id="207c67e74e"><rect x="0" width="12" y="0" height="11"/></clipPath><clipPath id="1ccc066626"><rect x="0" width="44" y="0" height="38"/></clipPath><clipPath id="0c79d31f22"><path d="M 10 6 L 24 6 L 24 38 L 10 38 Z M 10 6 " clip-rule="nonzero"/></clipPath><clipPath id="3039f0847c"><path d="M 10.789062 6.976562 L 21.976562 6.578125 L 23.082031 37.4375 L 11.890625 37.835938 Z M 10.789062 6.976562 " clip-rule="nonzero"/></clipPath><clipPath id="b9af5c17c3"><path d="M 0.601562 0.398438 L 13.320312 0.398438 L 13.320312 31.839844 L 0.601562 31.839844 Z M 0.601562 0.398438 " clip-rule="nonzero"/></clipPath><clipPath id="c1cd37ada6"><path d="M 0.789062 0.976562 L 11.976562 0.578125 L 13.082031 31.4375 L 1.890625 31.835938 Z M 0.789062 0.976562 " clip-rule="nonzero"/></clipPath><clipPath id="ddf40775fd"><rect x="0" width="14" y="0" height="32"/></clipPath><clipPath id="af47f17ba5"><path d="M 10 1 L 22 1 L 22 14 L 10 14 Z M 10 1 " clip-rule="nonzero"/></clipPath><clipPath id="c34093f775"><path d="M 19.632812 0.34375 L 23.585938 10.855469 L 13.070312 14.808594 L 9.117188 4.296875 Z M 19.632812 0.34375 " clip-rule="nonzero"/></clipPath><clipPath id="3252a3b666"><path d="M 21.609375 5.597656 C 20.515625 2.695312 17.277344 1.226562 14.375 2.320312 C 11.472656 3.410156 10.003906 6.648438 11.09375 9.550781 C 12.1875 12.453125 15.425781 13.921875 18.328125 12.832031 C 21.230469 11.738281 22.699219 8.5 21.609375 5.597656 Z M 21.609375 5.597656 " clip-rule="nonzero"/></clipPath><clipPath id="5140c8cfaa"><path d="M 0 0.121094 L 12 0.121094 L 12 13 L 0 13 Z M 0 0.121094 " clip-rule="nonzero"/></clipPath><clipPath id="7ed6b96ce3"><path d="M 9.632812 -0.65625 L 13.585938 9.855469 L 3.070312 13.808594 L -0.882812 3.296875 Z M 9.632812 -0.65625 " clip-rule="nonzero"/></clipPath><clipPath id="8eba85ede6"><path d="M 11.609375 4.597656 C 10.515625 1.695312 7.277344 0.226562 4.375 1.320312 C 1.472656 2.410156 0.00390625 5.648438 1.09375 8.550781 C 2.1875 11.453125 5.425781 12.921875 8.328125 11.832031 C 11.230469 10.738281 12.699219 7.5 11.609375 4.597656 Z M 11.609375 4.597656 " clip-rule="nonzero"/></clipPath><clipPath id="5e556af5fa"><rect x="0" width="12" y="0" height="13"/></clipPath><clipPath id="66e8bcea5f"><path d="M 11 30 L 24 30 L 24 43 L 11 43 Z M 11 30 " clip-rule="nonzero"/></clipPath><clipPath id="7cba72add4"><path d="M 20.707031 29.367188 L 24.660156 39.878906 L 14.144531 43.832031 L 10.191406 33.320312 Z M 20.707031 29.367188 " clip-rule="nonzero"/></clipPath><clipPath id="2a6625b5d7"><path d="M 22.683594 34.625 C 21.589844 31.71875 18.351562 30.253906 15.449219 31.34375 C 12.546875 32.433594 11.078125 35.671875 12.167969 38.578125 C 13.261719 41.480469 16.5 42.949219 19.402344 41.855469 C 22.304688 40.765625 23.773438 37.527344 22.683594 34.625 Z M 22.683594 34.625 " clip-rule="nonzero"/></clipPath><clipPath id="208633493c"><path d="M 0 0.160156 L 12.800781 0.160156 L 12.800781 13 L 0 13 Z M 0 0.160156 " clip-rule="nonzero"/></clipPath><clipPath id="3a9a5e1667"><path d="M 9.707031 -0.632812 L 13.660156 9.878906 L 3.144531 13.832031 L -0.808594 3.320312 Z M 9.707031 -0.632812 " clip-rule="nonzero"/></clipPath><clipPath id="92f778c626"><path d="M 11.683594 4.625 C 10.589844 1.71875 7.351562 0.253906 4.449219 1.34375 C 1.546875 2.433594 0.078125 5.671875 1.167969 8.578125 C 2.261719 11.480469 5.5 12.949219 8.402344 11.855469 C 11.304688 10.765625 12.773438 7.527344 11.683594 4.625 Z M 11.683594 4.625 " clip-rule="nonzero"/></clipPath><clipPath id="500cbb4398"><rect x="0" width="13" y="0" height="13"/></clipPath><clipPath id="537dc07510"><rect x="0" width="34" y="0" height="44"/></clipPath><clipPath id="53c82710d8"><path d="M 4 7 L 38 7 L 38 39 L 4 39 Z M 4 7 " clip-rule="nonzero"/></clipPath><clipPath id="f4084fdaf3"><path d="M 30.636719 7.96875 L 37.195312 15.425781 L 11.28125 38.226562 L 4.71875 30.765625 Z M 30.636719 7.96875 " clip-rule="nonzero"/></clipPath><clipPath id="4684e31e81"><path d="M 0.519531 0.960938 L 33.398438 0.960938 L 33.398438 31.441406 L 0.519531 31.441406 Z M 0.519531 0.960938 " clip-rule="nonzero"/></clipPath><clipPath id="2b241e2bf8"><path d="M 26.636719 0.96875 L 33.195312 8.425781 L 7.28125 31.226562 L 0.71875 23.765625 Z M 26.636719 0.96875 " clip-rule="nonzero"/></clipPath><clipPath id="076b89f25b"><rect x="0" width="34" y="0" height="32"/></clipPath><clipPath id="47bd53bfbd"><path d="M 28 6 L 39 6 L 39 18 L 28 18 Z M 28 6 " clip-rule="nonzero"/></clipPath><clipPath id="4c080dbd23"><path d="M 40.574219 9.664062 L 34.792969 19.632812 L 26.171875 14.632812 L 31.953125 4.664062 Z M 40.574219 9.664062 " clip-rule="nonzero"/></clipPath><clipPath id="042ac01ea4"><path d="M 37.683594 14.648438 C 39.28125 11.894531 38.644531 8.546875 36.261719 7.164062 C 33.882812 5.785156 30.660156 6.898438 29.0625 9.648438 C 27.46875 12.402344 28.105469 15.75 30.484375 17.132812 C 32.867188 18.511719 36.089844 17.398438 37.683594 14.648438 Z M 37.683594 14.648438 " clip-rule="nonzero"/></clipPath><clipPath id="6c345b9ef8"><path d="M 0 0 L 11 0 L 11 12 L 0 12 Z M 0 0 " clip-rule="nonzero"/></clipPath><clipPath id="241dab1dd9"><path d="M 12.574219 3.664062 L 6.792969 13.632812 L -1.828125 8.632812 L 3.953125 -1.335938 Z M 12.574219 3.664062 " clip-rule="nonzero"/></clipPath><clipPath id="cf352ccf8e"><path d="M 9.683594 8.648438 C 11.28125 5.894531 10.644531 2.546875 8.261719 1.164062 C 5.882812 -0.214844 2.660156 0.898438 1.0625 3.648438 C -0.53125 6.402344 0.105469 9.75 2.484375 11.132812 C 4.867188 12.511719 8.089844 11.398438 9.683594 8.648438 Z M 9.683594 8.648438 " clip-rule="nonzero"/></clipPath><clipPath id="e87dee9e82"><rect x="0" width="11" y="0" height="12"/></clipPath><clipPath id="acd259d9ca"><path d="M 3 28 L 14 28 L 14 40 L 3 40 Z M 3 28 " clip-rule="nonzero"/></clipPath><clipPath id="2bf8e23ec9"><path d="M 15.554688 31.742188 L 9.773438 41.710938 L 1.152344 36.710938 L 6.933594 26.742188 Z M 15.554688 31.742188 " clip-rule="nonzero"/></clipPath><clipPath id="46bc976aac"><path d="M 12.664062 36.726562 C 14.257812 33.972656 13.621094 30.621094 11.242188 29.242188 C 8.863281 27.863281 5.636719 28.976562 4.042969 31.726562 C 2.445312 34.480469 3.082031 37.828125 5.464844 39.210938 C 7.84375 40.589844 11.066406 39.476562 12.664062 36.726562 Z M 12.664062 36.726562 " clip-rule="nonzero"/></clipPath><clipPath id="6f4e53fe71"><path d="M 0 0 L 11 0 L 11 12 L 0 12 Z M 0 0 " clip-rule="nonzero"/></clipPath><clipPath id="bb789e675e"><path d="M 12.554688 3.742188 L 6.773438 13.710938 L -1.847656 8.710938 L 3.933594 -1.257812 Z M 12.554688 3.742188 " clip-rule="nonzero"/></clipPath><clipPath id="addd8b4d8e"><path d="M 9.664062 8.726562 C 11.257812 5.972656 10.621094 2.621094 8.242188 1.242188 C 5.863281 -0.136719 2.636719 0.976562 1.042969 3.726562 C -0.554688 6.480469 0.0820312 9.828125 2.464844 11.210938 C 4.84375 12.589844 8.066406 11.476562 9.664062 8.726562 Z M 9.664062 8.726562 " clip-rule="nonzero"/></clipPath><clipPath id="e7351cedbb"><rect x="0" width="11" y="0" height="12"/></clipPath><clipPath id="8227e3f88c"><rect x="0" width="42" y="0" height="47"/></clipPath><clipPath id="f89f75b938"><path d="M 5 11 L 39 11 L 39 30 L 5 30 Z M 5 11 " clip-rule="nonzero"/></clipPath><clipPath id="51c9a83aca"><path d="M 35.90625 11.101562 L 38.53125 21.988281 L 8.507812 29.222656 L 5.886719 18.339844 Z M 35.90625 11.101562 " clip-rule="nonzero"/></clipPath><clipPath id="96488187f6"><path d="M 0.839844 0 L 33.71875 0 L 33.71875 18.238281 L 0.839844 18.238281 Z M 0.839844 0 " clip-rule="nonzero"/></clipPath><clipPath id="a479f31664"><path d="M 30.90625 0.101562 L 33.53125 10.988281 L 3.507812 18.222656 L 0.886719 7.339844 Z M 30.90625 0.101562 " clip-rule="nonzero"/></clipPath><clipPath id="c18a2f7716"><rect x="0" width="34" y="0" height="19"/></clipPath><clipPath id="73b5b535f4"><path d="M 30 11 L 43 11 L 43 23 L 30 23 Z M 30 11 " clip-rule="nonzero"/></clipPath><clipPath id="4a59d12d68"><path d="M 44.171875 18.445312 L 34.65625 24.414062 L 28.6875 14.902344 L 38.199219 8.933594 Z M 44.171875 18.445312 " clip-rule="nonzero"/></clipPath><clipPath id="406f9b0ec1"><path d="M 39.414062 21.429688 C 42.042969 19.78125 42.835938 16.316406 41.1875 13.6875 C 39.539062 11.0625 36.070312 10.269531 33.445312 11.917969 C 30.816406 13.566406 30.023438 17.03125 31.671875 19.660156 C 33.320312 22.285156 36.789062 23.078125 39.414062 21.429688 Z M 39.414062 21.429688 " clip-rule="nonzero"/></clipPath><clipPath id="cc9295169a"><path d="M 0 0 L 13 0 L 13 12 L 0 12 Z M 0 0 " clip-rule="nonzero"/></clipPath><clipPath id="c3a8f09446"><path d="M 14.171875 7.445312 L 4.65625 13.414062 L -1.3125 3.902344 L 8.199219 -2.066406 Z M 14.171875 7.445312 " clip-rule="nonzero"/></clipPath><clipPath id="f52f73059c"><path d="M 9.414062 10.429688 C 12.042969 8.78125 12.835938 5.316406 11.1875 2.6875 C 9.539062 0.0625 6.070312 -0.730469 3.445312 0.917969 C 0.816406 2.566406 0.0234375 6.03125 1.671875 8.660156 C 3.320312 11.285156 6.789062 12.078125 9.414062 10.429688 Z M 9.414062 10.429688 " clip-rule="nonzero"/></clipPath><clipPath id="1fa4544ec4"><rect x="0" width="13" y="0" height="12"/></clipPath><clipPath id="d7f0fab5ca"><path d="M 2 17 L 14 17 L 14 30 L 2 30 Z M 2 17 " clip-rule="nonzero"/></clipPath><clipPath id="294849d28d"><path d="M 15.945312 25.285156 L 6.429688 31.257812 L 0.460938 21.742188 L 9.972656 15.773438 Z M 15.945312 25.285156 " clip-rule="nonzero"/></clipPath><clipPath id="7daec38a7d"><path d="M 11.1875 28.269531 C 13.8125 26.621094 14.605469 23.15625 12.957031 20.53125 C 11.308594 17.902344 7.84375 17.109375 5.214844 18.757812 C 2.589844 20.40625 1.796875 23.871094 3.445312 26.5 C 5.09375 29.125 8.558594 29.917969 11.1875 28.269531 Z M 11.1875 28.269531 " clip-rule="nonzero"/></clipPath><clipPath id="56070ce962"><path d="M 0 0 L 12 0 L 12 12.960938 L 0 12.960938 Z M 0 0 " clip-rule="nonzero"/></clipPath><clipPath id="8603bd26f0"><path d="M 13.945312 8.285156 L 4.429688 14.257812 L -1.539062 4.742188 L 7.972656 -1.226562 Z M 13.945312 8.285156 " clip-rule="nonzero"/></clipPath><clipPath id="e29c7102cf"><path d="M 9.1875 11.269531 C 11.8125 9.621094 12.605469 6.15625 10.957031 3.53125 C 9.308594 0.902344 5.84375 0.109375 3.214844 1.757812 C 0.589844 3.40625 -0.203125 6.871094 1.445312 9.5 C 3.09375 12.125 6.558594 12.917969 9.1875 11.269531 Z M 9.1875 11.269531 " clip-rule="nonzero"/></clipPath><clipPath id="183321c74f"><rect x="0" width="12" y="0" height="13"/></clipPath><clipPath id="f8a8d29639"><rect x="0" width="45" y="0" height="40"/></clipPath></defs><g clip-path="url(#6f69b9ec39)"><g transform="matrix(1, 0, 0, 1, 631, 389)"><g clip-path="url(#444e9fca3c)"><g clip-path="url(#264eb2dc33)"><path fill="#ffeb99" d="M 0.816406 0.984375 L 100.933594 0.984375 L 100.933594 98.8125 L 0.816406 98.8125 Z M 0.816406 0.984375 " fill-opacity="1" fill-rule="nonzero"/></g></g></g></g><g clip-path="url(#8b9d933679)"><g clip-path="url(#cbe0d56afe)"><g transform="matrix(1, 0, 0, 1, 631, 338)"><g clip-path="url(#e961bee392)"><g clip-path="url(#87bd19a2b5)"><g clip-path="url(#4a92b1a6e3)"><path fill="#ffeb99" d="M 0.816406 0.742188 L 100.972656 0.742188 L 100.972656 100.898438 L 0.816406 100.898438 Z M 0.816406 0.742188 " fill-opacity="1" fill-rule="nonzero"/></g></g></g></g></g></g><path stroke-linecap="butt" transform="matrix(0, -0.75, 0.75, 0, 567.726002, 487.809667)" fill="none" stroke-linejoin="miter" d="M 0.00143161 13.500748 L 177.459774 13.500748 " stroke="#cba265" stroke-width="27" stroke-opacity="1" stroke-miterlimit="4"/><path stroke-linecap="butt" transform="matrix(0, -0.75, 0.75, 0, 775.471599, 487.809667)" fill="none" stroke-linejoin="miter" d="M 0.00143161 13.50141 L 177.459774 13.50141 " stroke="#cba265" stroke-width="27" stroke-opacity="1" stroke-miterlimit="4"/><path stroke-linecap="butt" transform="matrix(0.544384, -0.515893, 0.515893, 0.544384, 567.618554, 354.53388)" fill="none" stroke-linejoin="miter" d="M -0.000817497 13.498763 L 210.594126 13.498778 " stroke="#cba265" stroke-width="27" stroke-opacity="1" stroke-miterlimit="4"/><path stroke-linecap="butt" transform="matrix(-0.54265, -0.517717, 0.517717, -0.54265, 781.676103, 369.20877)" fill="none" stroke-linejoin="miter" d="M 0.00133925 13.499053 L 205.266332 13.499787 " stroke="#cba265" stroke-width="27" stroke-opacity="1" stroke-miterlimit="4"/><g transform="matrix(1, 0, 0, 1, 528, 328)"><g clip-path="url(#4685540adf)"><g clip-path="url(#705a13e976)"><g clip-path="url(#6feb9f8d19)"><g transform="matrix(1, 0, 0, 1, 4, 0)"><g clip-path="url(#6e61d6afee)"><g clip-path="url(#935f4ee362)"><g clip-path="url(#87e75e9169)"><path fill="#ffeb99" d="M 0.046875 11.488281 L 3.613281 0.875 L 32.882812 10.699219 L 29.320312 21.316406 Z M 0.046875 11.488281 " fill-opacity="1" fill-rule="nonzero"/></g></g></g></g></g></g><g clip-path="url(#7b97b61d0a)"><g clip-path="url(#5cf6140627)"><g transform="matrix(1, 0, 0, 1, -0.000000000000113687, 0)"><g clip-path="url(#1e155398ac)"><g clip-path="url(#b467790bea)"><g clip-path="url(#4481addd0d)"><path fill="#ffeb99" d="M 0.949219 0.875 L 12.183594 0.875 L 12.183594 12.105469 L 0.949219 12.105469 Z M 0.949219 0.875 " fill-opacity="1" fill-rule="nonzero"/></g></g></g></g></g></g><g clip-path="url(#4c6fe0c0e1)"><g clip-path="url(#32906866a1)"><g transform="matrix(1, 0, 0, 1, 28, 10)"><g clip-path="url(#e2dd4fc172)"><g clip-path="url(#5fd69eb8e6)"><g clip-path="url(#11955467c0)"><path fill="#ffeb99" d="M 0.496094 0.0859375 L 11.726562 0.0859375 L 11.726562 11.316406 L 0.496094 11.316406 Z M 0.496094 0.0859375 " fill-opacity="1" fill-rule="nonzero"/></g></g></g></g></g></g></g></g><g transform="matrix(1, 0, 0, 1, 583, 255)"><g clip-path="url(#1ccc066626)"><g clip-path="url(#e7e9ab1c52)"><g clip-path="url(#41ed5ecc74)"><g transform="matrix(1, 0, 0, 1, 5, 3)"><g clip-path="url(#b3d7e53ca7)"><g clip-path="url(#a5e5f8e583)"><g clip-path="url(#aab94666c8)"><path fill="#ffeb99" d="M 0.816406 7.941406 L 7.605469 0.683594 L 32.828125 24.273438 L 26.042969 31.53125 Z M 0.816406 7.941406 " fill-opacity="1" fill-rule="nonzero"/></g></g></g></g></g></g><g clip-path="url(#e05874453f)"><g clip-path="url(#1c2acefc7e)"><g clip-path="url(#32e5671b81)"><g transform="matrix(1, 0, 0, 1, 4, 2)"><g clip-path="url(#f4775352e2)"><g clip-path="url(#04bf0b031b)"><g clip-path="url(#56ea0a8a09)"><g clip-path="url(#2721b57ef9)"><path fill="#ffeb99" d="M 2.539062 -1.117188 L 13.023438 3.667969 L 8.886719 12.734375 L -1.597656 7.949219 Z M 2.539062 -1.117188 " fill-opacity="1" fill-rule="nonzero"/></g></g></g></g></g></g></g></g><g clip-path="url(#8c15a29757)"><g clip-path="url(#98dca9faeb)"><g clip-path="url(#0422b7f600)"><g transform="matrix(1, 0, 0, 1, 28, 25)"><g clip-path="url(#207c67e74e)"><g clip-path="url(#54ef80a7ab)"><g clip-path="url(#f96bcb5fdc)"><g clip-path="url(#4fb40b923c)"><path fill="#ffeb99" d="M 2.945312 -1.359375 L 13.429688 3.421875 L 9.292969 12.488281 L -1.191406 7.707031 Z M 2.945312 -1.359375 " fill-opacity="1" fill-rule="nonzero"/></g></g></g></g></g></g></g></g></g></g><g transform="matrix(1, 0, 0, 1, 665, 200)"><g clip-path="url(#537dc07510)"><g clip-path="url(#0c79d31f22)"><g clip-path="url(#3039f0847c)"><g transform="matrix(1, 0, 0, 1, 10, 6)"><g clip-path="url(#ddf40775fd)"><g clip-path="url(#b9af5c17c3)"><g clip-path="url(#c1cd37ada6)"><path fill="#ffeb99" d="M 0.789062 0.976562 L 11.976562 0.578125 L 13.082031 31.433594 L 1.890625 31.835938 Z M 0.789062 0.976562 " fill-opacity="1" fill-rule="nonzero"/></g></g></g></g></g></g><g clip-path="url(#af47f17ba5)"><g clip-path="url(#c34093f775)"><g clip-path="url(#3252a3b666)"><g transform="matrix(1, 0, 0, 1, 10, 1)"><g clip-path="url(#5e556af5fa)"><g clip-path="url(#5140c8cfaa)"><g clip-path="url(#7ed6b96ce3)"><g clip-path="url(#8eba85ede6)"><path fill="#ffeb99" d="M 9.632812 -0.65625 L 13.585938 9.855469 L 3.070312 13.808594 L -0.882812 3.296875 Z M 9.632812 -0.65625 " fill-opacity="1" fill-rule="nonzero"/></g></g></g></g></g></g></g></g><g clip-path="url(#66e8bcea5f)"><g clip-path="url(#7cba72add4)"><g clip-path="url(#2a6625b5d7)"><g transform="matrix(1, 0, 0, 1, 11, 30)"><g clip-path="url(#500cbb4398)"><g clip-path="url(#208633493c)"><g clip-path="url(#3a9a5e1667)"><g clip-path="url(#92f778c626)"><path fill="#ffeb99" d="M 9.707031 -0.632812 L 13.660156 9.878906 L 3.144531 13.832031 L -0.808594 3.320312 Z M 9.707031 -0.632812 " fill-opacity="1" fill-rule="nonzero"/></g></g></g></g></g></g></g></g></g></g><g transform="matrix(1, 0, 0, 1, 733, 251)"><g clip-path="url(#8227e3f88c)"><g clip-path="url(#53c82710d8)"><g clip-path="url(#f4084fdaf3)"><g transform="matrix(1, 0, 0, 1, 4, 7)"><g clip-path="url(#076b89f25b)"><g clip-path="url(#4684e31e81)"><g clip-path="url(#2b241e2bf8)"><path fill="#ffeb99" d="M 26.636719 0.96875 L 33.195312 8.425781 L 7.265625 31.238281 L 0.707031 23.777344 Z M 26.636719 0.96875 " fill-opacity="1" fill-rule="nonzero"/></g></g></g></g></g></g><g clip-path="url(#47bd53bfbd)"><g clip-path="url(#4c080dbd23)"><g clip-path="url(#042ac01ea4)"><g transform="matrix(1, 0, 0, 1, 28, 6)"><g clip-path="url(#e87dee9e82)"><g clip-path="url(#6c345b9ef8)"><g clip-path="url(#241dab1dd9)"><g clip-path="url(#cf352ccf8e)"><path fill="#ffeb99" d="M 12.574219 3.664062 L 6.792969 13.632812 L -1.828125 8.632812 L 3.953125 -1.335938 Z M 12.574219 3.664062 " fill-opacity="1" fill-rule="nonzero"/></g></g></g></g></g></g></g></g><g clip-path="url(#acd259d9ca)"><g clip-path="url(#2bf8e23ec9)"><g clip-path="url(#46bc976aac)"><g transform="matrix(1, 0, 0, 1, 3, 28)"><g clip-path="url(#e7351cedbb)"><g clip-path="url(#6f4e53fe71)"><g clip-path="url(#bb789e675e)"><g clip-path="url(#addd8b4d8e)"><path fill="#ffeb99" d="M 12.554688 3.742188 L 6.773438 13.710938 L -1.847656 8.710938 L 3.933594 -1.257812 Z M 12.554688 3.742188 " fill-opacity="1" fill-rule="nonzero"/></g></g></g></g></g></g></g></g></g></g><g transform="matrix(1, 0, 0, 1, 790, 319)"><g clip-path="url(#f8a8d29639)"><g clip-path="url(#f89f75b938)"><g clip-path="url(#51c9a83aca)"><g transform="matrix(1, 0, 0, 1, 5, 11)"><g clip-path="url(#c18a2f7716)"><g clip-path="url(#96488187f6)"><g clip-path="url(#a479f31664)"><path fill="#ffeb99" d="M 30.90625 0.101562 L 33.53125 10.988281 L 3.511719 18.222656 L 0.890625 7.335938 Z M 30.90625 0.101562 " fill-opacity="1" fill-rule="nonzero"/></g></g></g></g></g></g><g clip-path="url(#73b5b535f4)"><g clip-path="url(#4a59d12d68)"><g clip-path="url(#406f9b0ec1)"><g transform="matrix(1, 0, 0, 1, 30, 11)"><g clip-path="url(#1fa4544ec4)"><g clip-path="url(#cc9295169a)"><g clip-path="url(#c3a8f09446)"><g clip-path="url(#f52f73059c)"><path fill="#ffeb99" d="M 14.171875 7.445312 L 4.65625 13.414062 L -1.3125 3.902344 L 8.199219 -2.066406 Z M 14.171875 7.445312 " fill-opacity="1" fill-rule="nonzero"/></g></g></g></g></g></g></g></g><g clip-path="url(#d7f0fab5ca)"><g clip-path="url(#294849d28d)"><g clip-path="url(#7daec38a7d)"><g transform="matrix(1, 0, 0, 1, 2, 17)"><g clip-path="url(#183321c74f)"><g clip-path="url(#56070ce962)"><g clip-path="url(#8603bd26f0)"><g clip-path="url(#e29c7102cf)"><path fill="#ffeb99" d="M 13.945312 8.285156 L 4.429688 14.257812 L -1.539062 4.742188 L 7.972656 -1.226562 Z M 13.945312 8.285156 " fill-opacity="1" fill-rule="nonzero"/></g></g></g></g></g></g></g></g></g></g></svg>